# xmcd
#
# Track frame offsets:
#	150
#	11651
#	21399
#	33640
#	44216
#	49625
#	60584
#	68305
#	78989
#	92380
#	104929
#	114579
#	126076
#	144875
#
# Disc length: 2095 seconds
#
# Revision: 0
# Processed by: cddbd v1.5.2PL0 Copyright (c) Steve Scherf et al.
# Submitted via: dBpowerAMP V4.0
#
DISCID=bb082d0e
DTITLE=The Platters - Only you (Platinum Collection) cd1
DYEAR=2005
DGENRE=Soul
TTITLE0=Only you
TTITLE1=The great pretender
TTITLE2=Smoke gets in your eyes
TTITLE3=Beer barrel boogie
TTITLE4=Red sails in the sunset
TTITLE5=Give thanks
TTITLE6=Goodnight sweetheart
TTITLE7=With this ring
TTITLE8=Headin' home
TTITLE9=Put your hand in the hand
TTITLE10=Hey now
TTITLE11=I believe
TTITLE12=I do it all the time
TTITLE13=I need you all the time
EXTD=PC219\nWeton-Wesgram
EXTT0=
EXTT1=
EXTT2=
EXTT3=
EXTT4=
EXTT5=
EXTT6=
EXTT7=
EXTT8=
EXTT9=
EXTT10=
EXTT11=
EXTT12=
EXTT13=
PLAYORDER=
